<svg xmlns="http://www.w3.org/2000/svg" viewBox="0 0 96 96"><defs><radialGradient id="b" cx=".35" cy=".25"><stop stop-color="#203d30"/><stop offset=".72" stop-color="#06120d"/><stop offset="1" stop-color="#020302"/></radialGradient><linearGradient id="g" x1="0" y1="0" x2="1" y2="1"><stop stop-color="#fff3b0"/><stop offset=".25" stop-color="#d7a84c"/><stop offset=".55" stop-color="#8f5a16"/><stop offset=".8" stop-color="#ffd875"/><stop offset="1" stop-color="#6b3908"/></linearGradient><linearGradient id="l" x1="0" y1="0" x2="1" y2="1"><stop stop-color="#82ff67"/><stop offset=".45" stop-color="#19782f"/><stop offset="1" stop-color="#053816"/></linearGradient><filter id="s"><feDropShadow dx="0" dy="5" stdDeviation="4" flood-opacity=".55"/></filter></defs><circle cx="48" cy="48" r="40" fill="url(#b)" stroke="url(#g)" stroke-width="5" filter="url(#s)"/><path d="M49 71C34 58 33 39 50 20c15 9 23 29 10 44-3 4-7 6-11 7Z" fill="url(#l)" stroke="url(#g)" stroke-width="2"/><path d="M41 73C29 67 21 53 26 36c14 1 27 11 27 25 0 5-4 10-12 12Z" fill="url(#l)" stroke="url(#g)" stroke-width="2"/><path d="M39 67c5-15 11-26 18-37M35 60c4-9 9-14 15-18" stroke="#d7c070" stroke-width="1.6" stroke-linecap="round"/><g fill="#d9ffd0" opacity=".75"><circle cx="51" cy="37" r="2.1"/><circle cx="45" cy="47" r="1.5"/><circle cx="33" cy="49" r="1.8"/></g></svg>