<svg xmlns="http://www.w3.org/2000/svg" viewBox="0 0 96 96"><defs><linearGradient id="g"><stop stop-color="#f7e3aa"/><stop offset=".5" stop-color="#c48a38"/><stop offset="1" stop-color="#704116"/></linearGradient><filter id="d"><feDropShadow dx="0" dy="7" stdDeviation="5" flood-opacity=".42"/></filter></defs><path d="M30 18c5-3 9-2 12 4l7 14c2 4 1 7-2 10l-6 5c5 10 12 17 22 22l5-6c3-3 6-4 10-2l14 7c6 3 7 7 4 12-3 6-9 10-17 9-26-2-56-32-58-58-1-8 3-14 9-17Z" transform="translate(-10 -8)" fill="none" stroke="url(#g)" stroke-width="6" stroke-linecap="round" stroke-linejoin="round" filter="url(#d)"/></svg>